<svg xmlns="http://www.w3.org/2000/svg" viewBox="0 0 20 20" fill="none"><path stroke="currentColor" stroke-linecap="round" stroke-linejoin="round" stroke-width="var(--icon-stroke-width)" d="M4.954,6.875h10.092c.863,0,1.562.699,1.562,1.562v6.454c0,.567-.224,1.112-.624,1.513-.4.402-.941.627-1.506.627H5.522c-.565,0-1.107-.226-1.506-.627-.399-.402-.624-.946-.624-1.513v-6.454c0-.863.699-1.562,1.562-1.562ZM8.818,2.969h2.333c.618,0,1.211.247,1.649.686.438.441.683,1.037.683,1.658h0c0,.863-.699,1.562-1.562,1.562h-3.873c-.863,0-1.562-.699-1.562-1.562h0c0-.622.246-1.218.683-1.658.437-.439,1.031-.686,1.65-.686"/>
</svg>

